<svg height="512pt" viewBox="-97 0 512 512" width="512pt" xmlns="http://www.w3.org/2000/svg"><path d="m44.136719 0h229.519531c24.375 0 44.136719 19.761719 44.136719 44.136719v423.726562c0 24.375-19.761719 44.136719-44.136719 44.136719h-229.519531c-24.375 0-44.136719-19.761719-44.136719-44.136719v-423.726562c0-24.375 19.761719-44.136719 44.136719-44.136719zm0 0" fill="#5e5f62"/><path d="m0 70.621094h317.792969v370.757812h-317.792969zm0 0" fill="#90bae1"/><path d="m317.792969 70.621094v170.460937c-177.609375-27.542969-272.507813 36.898438-317.792969 86.863281v-257.324218zm0 0" fill="#b0d3f0"/><path d="m185.378906 485.515625h-52.964844c-4.875 0-8.828124-3.949219-8.828124-8.824219 0-4.878906 3.953124-8.828125 8.828124-8.828125h52.964844c4.875 0 8.828125 3.949219 8.828125 8.828125 0 4.875-3.953125 8.824219-8.828125 8.824219zm0 0" fill="#2c2f38"/><path d="m167.722656 0v26.484375c0 4.875-3.949218 8.824219-8.824218 8.824219-4.878907 0-8.828126-3.949219-8.828126-8.824219v-26.484375zm0 0" fill="#2c2f38"/><path d="m282.484375 282.484375c0 3-.089844 5.914063-.265625 8.824219-1.605469 22.207031-9.199219 43.566406-21.980469 61.792968h-202.683593c-12.78125-18.226562-20.375-39.585937-21.980469-61.792968-.175781-2.910156-.265625-5.824219-.265625-8.824219 0-3.003906.089844-5.917969.355468-8.828125 1.800782-26.40625 12.148438-51.503906 29.484376-71.503906 3.761718-4.574219 7.925781-8.796875 12.445312-12.625 20.183594-17.773438 45.648438-28.410156 72.476562-30.277344 2.910157-.265625 5.824219-.351562 8.828126-.351562 3 0 5.914062.085937 8.824218.351562 26.828125 1.867188 52.296875 12.503906 72.476563 30.277344 4.519531 3.828125 8.683593 8.050781 12.445312 12.625 17.335938 20 27.683594 45.097656 29.484375 71.503906.265625 2.910156.355469 5.824219.355469 8.828125zm0 0" fill="#e6e7e8"/><g fill="#5e5f62"><path d="m167.722656 159.25v34.957031c0 4.875-3.949218 8.828125-8.824218 8.828125-4.878907 0-8.828126-3.953125-8.828126-8.828125v-34.957031c2.910157-.265625 5.824219-.351562 8.828126-.351562 3 0 5.914062.085937 8.824218.351562zm0 0"/><path d="m93.660156 218.128906c-3.480468 3.414063-9.054687 3.414063-12.535156 0l-15.976562-15.976562c3.761718-4.574219 7.925781-8.796875 12.445312-12.625l16.066406 16.066406c3.441406 3.46875 3.441406 9.066406 0 12.535156zm0 0"/><path d="m252.644531 202.152344-15.976562 15.976562c-3.480469 3.414063-9.054688 3.414063-12.535157 0-3.441406-3.46875-3.441406-9.066406 0-12.535156l16.066407-16.066406c4.519531 3.828125 8.683593 8.050781 12.445312 12.625zm0 0"/><path d="m282.484375 282.484375c0 3-.089844 5.914063-.265625 8.824219h-35.046875c-4.875 0-8.828125-3.949219-8.828125-8.824219 0-4.878906 3.953125-8.828125 8.828125-8.828125h34.957031c.265625 2.910156.355469 5.824219.355469 8.828125zm0 0"/><path d="m79.449219 282.484375c0 4.875-3.953125 8.824219-8.828125 8.824219h-35.046875c-.175781-2.910156-.265625-5.824219-.265625-8.824219 0-3.003906.089844-5.917969.355468-8.828125h34.957032c4.875 0 8.828125 3.949219 8.828125 8.828125zm0 0"/></g><path d="m133.128906 332.800781-2.355468-95.789062c.148437-4.679688 10.460937-7.132813 12.703124-3.035157l41.171876 86.507813zm0 0" fill="#e64c3c"/><path d="m185.371094 326.613281c0 14.625-11.855469 26.480469-26.484375 26.480469-14.625 0-26.480469-11.855469-26.480469-26.480469 0-14.628906 11.855469-26.484375 26.480469-26.484375 14.628906 0 26.484375 11.855469 26.484375 26.484375zm0 0" fill="#c03a2b"/></svg>